<svg width="1479" height="301" viewBox="0 0 1479 301" fill="none" xmlns="http://www.w3.org/2000/svg">
<path id="Arjun Aadhith" d="M16.2 200.8C13.2667 200.4 10.3333 199.667 7.4 198.6C4.46667 197.533 2 196 5.66244e-07 194L56 53.6C58.1333 52.6667 60.6667 52.2 63.6 52.2C66.9333 52.2 69.5333 52.6667 71.4 53.6L127.8 193.8C126.067 195.667 123.733 197.133 120.8 198.2C117.867 199.4 114.6 200.267 111 200.8L95.2 161H31.8L16.2 200.8ZM38.6 143.8H88.4L63.4 80.8L38.6 143.8ZM160.35 198.6C157.15 198.467 154.15 197.933 151.35 197C148.55 195.933 145.817 194.267 143.15 192C147.283 183.333 150.417 173.667 152.55 163C154.817 152.2 155.95 140.867 155.95 129C155.95 127.267 155.883 125.267 155.75 123C155.617 120.6 155.35 118.533 154.95 116.8C153.35 115.333 151.817 113.267 150.35 110.6C148.883 107.8 147.683 104.933 146.75 102C145.95 99.0667 145.55 96.7333 145.55 95C147.017 93.1333 149.75 91.5333 153.75 90.2C157.75 88.7333 161.483 88 164.95 88C166.283 90.4 167.483 93.1333 168.55 96.2C169.617 99.1333 170.55 102.267 171.35 105.6C174.817 105.333 179.283 104.533 184.75 103.2C189.017 102.267 192.417 101.667 194.95 101.4C197.617 101 199.883 100.8 201.75 100.8C208.95 100.8 214.617 103.533 218.75 109C222.883 114.333 224.95 121.6 224.95 130.8V163C224.95 170.333 225.883 175.6 227.75 178.8C229.75 182 232.883 183.6 237.15 183.6C239.017 183.6 240.417 184.4 241.35 186C242.417 187.6 242.95 189.733 242.95 192.4C242.95 194.533 242.35 196.467 241.15 198.2C240.083 199.933 238.283 200.8 235.75 200.8C216.417 200.8 206.75 188.933 206.75 165.2V134.2C206.75 128.2 206.083 124 204.75 121.6C203.417 119.2 201.017 118 197.55 118C196.35 118 195.017 118.133 193.55 118.4C192.083 118.667 189.483 119.2 185.75 120C180.55 121.067 176.483 121.8 173.55 122.2C173.683 124.6 173.75 127 173.75 129.4C173.75 141.133 172.617 153.2 170.35 165.6C168.083 177.867 164.75 188.867 160.35 198.6ZM235.512 200.8C233.779 200.8 232.379 199.933 231.312 198.2C230.112 196.6 229.512 194.6 229.512 192.2C229.512 189.533 230.246 187.467 231.712 186C233.046 184.4 234.912 183.6 237.312 183.6C242.113 183.6 246.513 181.4 250.512 177C254.513 172.467 258.779 165.067 263.313 154.8C267.446 145.333 270.979 136.6 273.913 128.6C276.846 120.6 279.779 111.8 282.713 102.2C285.913 101.4 289.179 101.2 292.513 101.6C295.846 102 298.513 102.933 300.513 104.4V254C300.513 285.2 289.113 300.8 266.313 300.8C255.779 300.8 247.513 297.667 241.513 291.4C235.646 285.133 232.712 276.533 232.712 265.6C232.712 241.333 249.246 218.6 282.313 197.4V150.6C279.779 157.667 276.579 165.267 272.713 173.4C263.779 191.667 251.379 200.8 235.512 200.8ZM250.713 265.2C250.713 270.933 252.046 275.4 254.713 278.6C257.379 281.933 261.046 283.6 265.713 283.6C277.046 283.6 282.713 273.733 282.713 254V218.2C261.379 233.267 250.713 248.933 250.713 265.2ZM292.113 74.8C288.379 74.8 285.179 73.4667 282.513 70.8C279.846 68.1333 278.513 64.9333 278.513 61.2C278.513 57.2 279.779 53.9333 282.313 51.4C284.979 48.8667 288.246 47.6 292.113 47.6C296.113 47.6 299.379 48.8667 301.913 51.4C304.446 53.9333 305.713 57.2 305.713 61.2C305.713 65.0667 304.379 68.3333 301.713 71C299.179 73.5333 295.979 74.8 292.113 74.8ZM310.98 203C306.846 206.467 303.913 208.867 302.18 210.2C300.313 211.533 298.646 212.2 297.18 212.2C295.846 212.2 294.38 211.6 292.78 210.4C291.18 209.333 289.846 208 288.78 206.4C287.713 204.933 287.18 203.6 287.18 202.4C287.18 200 288.78 197.6 291.98 195.2C298.113 190.4 304.313 185.133 310.58 179.4C316.713 173.667 322.38 167.533 327.58 161C332.913 154.333 337.18 147.267 340.38 139.8C343.58 132.333 345.18 124.467 345.18 116.2V103.6C346.38 103.2 347.78 102.867 349.38 102.6C350.98 102.333 352.646 102.2 354.38 102.2C357.446 102.2 360.446 102.667 363.38 103.6V149.8C363.38 161.4 365.246 169.867 368.98 175.2C372.713 180.4 378.58 183 386.58 183C405.646 183 415.18 169.067 415.18 141.2V103.6C416.246 103.2 417.58 102.867 419.18 102.6C420.78 102.333 422.446 102.2 424.18 102.2C427.38 102.2 430.446 102.667 433.38 103.6V161.2C433.38 168.267 434.446 173.8 436.58 177.8C438.846 181.667 442.58 183.6 447.78 183.6C450.046 183.6 451.58 184.533 452.38 186.4C453.18 188.267 453.58 190.267 453.58 192.4C453.58 194.533 452.98 196.467 451.78 198.2C450.713 199.933 448.913 200.8 446.38 200.8C433.58 200.8 424.913 195.2 420.38 184C416.646 189.467 411.846 193.667 405.98 196.6C400.113 199.4 393.18 200.8 385.18 200.8C374.646 200.8 366.113 197.933 359.58 192.2C353.046 186.467 348.713 178.067 346.58 167C341.913 173.8 336.513 180.133 330.38 186C324.246 191.733 317.78 197.4 310.98 203ZM446.455 200.8C444.721 200.8 443.321 200 442.255 198.4C441.188 196.8 440.655 194.733 440.655 192.2C440.655 186.467 443.055 183.6 447.855 183.6C452.121 183.6 455.921 181.467 459.255 177.2C462.721 172.8 465.721 165.533 468.255 155.4L474.255 132C479.855 111.2 490.521 100.8 506.255 100.8C512.255 100.8 517.321 102.6 521.455 106.2C525.588 109.667 528.455 114.4 530.055 120.4C533.788 114.133 538.588 109.333 544.455 106C550.321 102.533 556.855 100.8 564.055 100.8C574.455 100.8 582.455 104.2 588.055 111C593.788 117.8 596.655 127.333 596.655 139.6V163C596.655 170.333 597.588 175.6 599.455 178.8C601.455 182 604.588 183.6 608.855 183.6C610.321 183.6 611.921 183.267 613.655 182.6C615.388 181.933 617.188 180.933 619.055 179.6C621.321 180.667 623.188 182.533 624.655 185.2C626.121 187.733 626.788 190.267 626.655 192.8C624.521 195.2 621.788 197.133 618.455 198.6C615.121 200.067 611.521 200.8 607.655 200.8H607.455C588.121 200.8 578.455 188.933 578.455 165.2V139.6C578.455 125.2 572.788 118 561.455 118C555.588 118 550.388 120.333 545.855 125C541.455 129.667 537.988 136.133 535.455 144.4C533.055 152.667 531.855 162.267 531.855 173.2V198C530.521 198.4 529.055 198.733 527.455 199C525.855 199.267 524.321 199.4 522.855 199.4C519.655 199.4 516.655 198.933 513.855 198V134.2C513.855 129 513.188 125 511.855 122.2C510.521 119.4 508.121 118 504.655 118C501.855 118 499.455 119.267 497.455 121.8C495.455 124.333 493.721 128.4 492.255 134L484.855 162.8C481.388 176 476.588 185.667 470.455 191.8C464.321 197.8 456.321 200.8 446.455 200.8ZM709.364 200.8C706.431 200.4 703.497 199.667 700.564 198.6C697.631 197.533 695.164 196 693.164 194L749.164 53.6C751.297 52.6667 753.831 52.2 756.764 52.2C760.097 52.2 762.697 52.6667 764.564 53.6L820.964 193.8C819.231 195.667 816.897 197.133 813.964 198.2C811.031 199.4 807.764 200.267 804.164 200.8L788.364 161H724.964L709.364 200.8ZM731.764 143.8H781.564L756.564 80.8L731.764 143.8ZM874.208 200.8C865.808 200.8 858.408 198.8 852.008 194.8C845.741 190.8 840.808 185.2 837.208 178C833.741 170.8 832.008 162.533 832.008 153.2C832.008 143.067 834.008 134.067 838.008 126.2C842.008 118.333 847.408 112.133 854.208 107.6C861.141 103.067 869.008 100.8 877.808 100.8C882.474 100.8 887.074 101.733 891.608 103.6C896.141 105.333 899.941 107.733 903.008 110.8V102.6C904.208 102.2 905.608 101.867 907.208 101.6C908.808 101.333 910.474 101.2 912.208 101.2C915.408 101.2 918.408 101.667 921.208 102.6V163C921.208 170.333 922.141 175.6 924.008 178.8C926.008 182 929.141 183.6 933.408 183.6C935.274 183.6 936.674 184.4 937.608 186C938.674 187.6 939.208 189.733 939.208 192.4C939.208 194.533 938.608 196.467 937.408 198.2C936.341 199.933 934.541 200.8 932.008 200.8C919.341 200.8 910.808 195.6 906.408 185.2C902.541 190.133 897.874 194 892.408 196.8C886.941 199.467 880.874 200.8 874.208 200.8ZM850.608 153.2C850.608 162.667 852.741 170.133 857.008 175.6C861.408 180.933 867.408 183.6 875.008 183.6C883.408 183.6 890.141 180.733 895.208 175C900.408 169.267 903.008 161.733 903.008 152.4V130C900.341 126.4 896.941 123.533 892.808 121.4C888.674 119.133 884.408 118 880.008 118C874.274 118 869.208 119.533 864.808 122.6C860.408 125.667 856.941 129.867 854.408 135.2C851.874 140.4 850.608 146.4 850.608 153.2ZM933.402 183.6C937.935 183.6 942.335 181.4 946.602 177C951.002 172.467 954.668 166.4 957.602 158.8C957.468 156.933 957.402 155.067 957.402 153.2C957.402 143.067 959.402 134.067 963.402 126.2C967.402 118.333 972.802 112.133 979.602 107.6C986.535 103.067 994.402 100.8 1003.2 100.8C1007.87 100.8 1012.47 101.733 1017 103.6C1021.53 105.333 1025.33 107.733 1028.4 110.8V30C1030.93 29.0667 1034 28.6 1037.6 28.6C1040.67 28.6 1043.67 29.0667 1046.6 30V163C1046.6 170.333 1047.53 175.6 1049.4 178.8C1051.4 182 1054.53 183.6 1058.8 183.6C1060.67 183.6 1062.07 184.4 1063 186C1064.07 187.6 1064.6 189.733 1064.6 192.4C1064.6 194.533 1064 196.467 1062.8 198.2C1061.73 199.933 1059.93 200.8 1057.4 200.8C1044.73 200.8 1036.2 195.6 1031.8 185.2C1027.93 190.133 1023.27 194 1017.8 196.8C1012.33 199.467 1006.27 200.8 999.602 200.8C991.868 200.8 985.002 199.133 979.002 195.8C973.135 192.333 968.335 187.6 964.602 181.6C956.335 194.4 945.468 200.8 932.002 200.8C930.268 200.8 928.868 200 927.802 198.4C926.735 196.8 926.202 194.733 926.202 192.2C926.202 186.467 928.602 183.6 933.402 183.6ZM976.002 153.2C976.002 162.667 978.135 170.133 982.402 175.6C986.802 180.933 992.802 183.6 1000.4 183.6C1008.8 183.6 1015.53 180.733 1020.6 175C1025.8 169.267 1028.4 161.733 1028.4 152.4V130C1025.73 126.4 1022.33 123.533 1018.2 121.4C1014.07 119.133 1009.8 118 1005.4 118C999.668 118 994.602 119.533 990.202 122.6C985.802 125.667 982.335 129.867 979.802 135.2C977.268 140.4 976.002 146.4 976.002 153.2ZM1057.39 200.8C1055.66 200.8 1054.26 200 1053.19 198.4C1052.13 196.8 1051.59 194.733 1051.59 192.2C1051.59 189.533 1052.26 187.467 1053.59 186C1054.79 184.4 1056.46 183.6 1058.59 183.6C1064.46 183.6 1070.06 181 1075.39 175.8C1080.86 170.467 1086.93 161.6 1093.59 149.2V42.2C1093.59 28.8667 1096.39 18.6 1101.99 11.4C1107.73 4.19999 1115.99 0.666656 1126.79 0.799988C1136.66 0.933319 1144.33 4.66665 1149.79 12C1155.39 19.3333 1158.19 28.8667 1158.19 40.6C1158.19 50.0667 1156.46 60.6 1152.99 72.2C1149.53 83.8 1144.93 94.9333 1139.19 105.6C1140.53 105.467 1141.93 105.4 1143.39 105.4C1153.39 105.4 1161.33 108.933 1167.19 116C1173.19 123.067 1176.19 132.533 1176.19 144.4V161.6C1176.19 169.333 1177.13 174.933 1178.99 178.4C1180.99 181.867 1184.26 183.6 1188.79 183.6C1190.93 183.6 1192.46 184.467 1193.39 186.2C1194.33 187.8 1194.79 189.867 1194.79 192.4C1194.79 194.933 1194.13 196.933 1192.79 198.4C1191.59 200 1189.86 200.8 1187.59 200.8C1177.99 200.8 1170.59 197.733 1165.39 191.6C1160.33 185.333 1157.79 176.533 1157.79 165.2V144C1157.79 137.2 1156.26 131.933 1153.19 128.2C1150.26 124.333 1146.06 122.4 1140.59 122.4C1135.26 122.4 1130.46 124.2 1126.19 127.8C1121.93 131.267 1118.53 136.067 1115.99 142.2C1113.46 148.333 1112.13 155.4 1111.99 163.4V198C1110.66 198.4 1109.19 198.733 1107.59 199C1105.99 199.267 1104.46 199.4 1102.99 199.4C1099.93 199.4 1096.79 198.933 1093.59 198V181.6C1088.13 188.667 1082.53 193.667 1076.79 196.6C1071.19 199.4 1064.73 200.8 1057.39 200.8ZM1111.39 42V119.2C1117.39 110 1122.53 100.733 1126.79 91.4C1131.19 82.0667 1134.53 73.0667 1136.79 64.4C1139.19 55.6 1140.39 47.6 1140.39 40.4C1140.39 32.9333 1139.13 27.2667 1136.59 23.4C1134.19 19.4 1130.66 17.4 1125.99 17.4C1116.26 17.4 1111.39 25.6 1111.39 42ZM1189.07 183.6C1191.87 183.6 1194.87 182.733 1198.07 181C1201.27 179.267 1204.27 176.6 1207.07 173C1210.4 168.467 1212.8 163.267 1214.27 157.4C1215.87 151.533 1216.87 145.6 1217.27 139.6V103.6C1218.47 103.2 1219.87 102.867 1221.47 102.6C1223.07 102.333 1224.73 102.2 1226.47 102.2C1229.53 102.2 1232.53 102.667 1235.47 103.6V161.2C1235.47 168.267 1236.53 173.8 1238.67 177.8C1240.93 181.667 1244.67 183.6 1249.87 183.6C1252.13 183.6 1253.67 184.533 1254.47 186.4C1255.27 188.267 1255.67 190.267 1255.67 192.4C1255.67 194.533 1255.07 196.467 1253.87 198.2C1252.8 199.933 1251 200.8 1248.47 200.8C1234.6 200.8 1225.6 194.267 1221.47 181.2C1219.6 184.267 1217.6 186.867 1215.47 189C1211.87 192.6 1207.67 195.467 1202.87 197.6C1198.2 199.733 1193.13 200.8 1187.67 200.8C1185.8 200.8 1184.4 199.867 1183.47 198C1182.4 196.267 1181.87 194.333 1181.87 192.2C1181.87 189.933 1182.47 187.933 1183.67 186.2C1184.73 184.467 1186.53 183.6 1189.07 183.6ZM1226.67 74.8C1222.93 74.8 1219.73 73.4667 1217.07 70.8C1214.4 68.1333 1213.07 64.9333 1213.07 61.2C1213.07 57.2 1214.33 53.9333 1216.87 51.4C1219.53 48.8667 1222.8 47.6 1226.67 47.6C1230.67 47.6 1233.93 48.8667 1236.47 51.4C1239 53.9333 1240.27 57.2 1240.27 61.2C1240.27 65.0667 1238.93 68.3333 1236.27 71C1233.73 73.5333 1230.53 74.8 1226.67 74.8ZM1249.81 183.6C1253.14 183.6 1256.94 182.6 1261.21 180.6C1265.61 178.6 1269.87 175.2 1274.01 170.4C1278.14 165.6 1281.54 159.133 1284.21 151C1286.87 142.733 1288.21 132.4 1288.21 120V100.8H1273.41C1272.47 98.6667 1272.01 96 1272.01 92.8C1272.01 89.6 1272.47 86.9333 1273.41 84.8H1288.21V49.4C1290.74 48.4667 1293.81 48 1297.41 48C1300.61 48 1303.67 48.4667 1306.61 49.4V84.8H1336.41C1337.47 86.9333 1338.01 89.6 1338.01 92.8C1338.01 96 1337.47 98.6667 1336.41 100.8H1306.61V142.2C1306.61 155.533 1308.61 165.8 1312.61 173C1316.74 180.067 1322.54 183.6 1330.01 183.6C1333.87 183.6 1335.81 186.533 1335.81 192.4C1335.81 194.933 1335.14 196.933 1333.81 198.4C1332.61 200 1330.87 200.8 1328.61 200.8C1319.94 200.8 1312.61 198.333 1306.61 193.4C1300.74 188.467 1296.41 181.6 1293.61 172.8C1288.01 182.4 1281.14 189.467 1273.01 194C1264.87 198.533 1256.67 200.8 1248.41 200.8C1246.67 200.8 1245.27 199.933 1244.21 198.2C1243.14 196.6 1242.61 194.6 1242.61 192.2C1242.61 189.667 1243.21 187.6 1244.41 186C1245.61 184.4 1247.41 183.6 1249.81 183.6ZM1328.68 200.8C1326.95 200.8 1325.55 200 1324.48 198.4C1323.41 196.8 1322.88 194.733 1322.88 192.2C1322.88 189.533 1323.55 187.467 1324.88 186C1326.08 184.4 1327.75 183.6 1329.88 183.6C1335.75 183.6 1341.35 181 1346.68 175.8C1352.15 170.467 1358.21 161.6 1364.88 149.2V42.2C1364.88 28.8667 1367.68 18.6 1373.28 11.4C1379.01 4.19999 1387.28 0.666656 1398.08 0.799988C1407.95 0.933319 1415.61 4.66665 1421.08 12C1426.68 19.3333 1429.48 28.8667 1429.48 40.6C1429.48 50.0667 1427.75 60.6 1424.28 72.2C1420.81 83.8 1416.21 94.9333 1410.48 105.6C1411.81 105.467 1413.21 105.4 1414.68 105.4C1424.68 105.4 1432.61 108.933 1438.48 116C1444.48 123.067 1447.48 132.533 1447.48 144.4V161.6C1447.48 169.333 1448.41 174.933 1450.28 178.4C1452.28 181.867 1455.55 183.6 1460.08 183.6C1461.55 183.6 1463.15 183.267 1464.88 182.6C1466.61 181.933 1468.41 180.933 1470.28 179.6C1472.55 180.667 1474.41 182.533 1475.88 185.2C1477.35 187.733 1478.01 190.267 1477.88 192.8C1475.75 195.2 1473.01 197.133 1469.68 198.6C1466.35 200.067 1462.75 200.8 1458.88 200.8C1449.28 200.8 1441.88 197.733 1436.68 191.6C1431.61 185.333 1429.08 176.533 1429.08 165.2V144C1429.08 137.2 1427.55 131.933 1424.48 128.2C1421.55 124.333 1417.35 122.4 1411.88 122.4C1406.55 122.4 1401.75 124.2 1397.48 127.8C1393.21 131.267 1389.81 136.067 1387.28 142.2C1384.75 148.333 1383.41 155.4 1383.28 163.4V198C1381.95 198.4 1380.48 198.733 1378.88 199C1377.28 199.267 1375.75 199.4 1374.28 199.4C1371.21 199.4 1368.08 198.933 1364.88 198V181.6C1359.41 188.667 1353.81 193.667 1348.08 196.6C1342.48 199.4 1336.01 200.8 1328.68 200.8ZM1382.68 42V119.2C1388.68 110 1393.81 100.733 1398.08 91.4C1402.48 82.0667 1405.81 73.0667 1408.08 64.4C1410.48 55.6 1411.68 47.6 1411.68 40.4C1411.68 32.9333 1410.41 27.2667 1407.88 23.4C1405.48 19.4 1401.95 17.4 1397.28 17.4C1387.55 17.4 1382.68 25.6 1382.68 42Z" fill="white"/>
</svg>
